HIERARCHY
ROOT Hips
{
 OFFSET 0.000000 0.000000 0.000000
 CHANNELS 6 Xposition Yposition Zposition Yrotation Xrotation Zrotation
 JOINT Chest
 {
  OFFSET 0.000000 9.857222 0.000240
  CHANNELS 3 Yrotation Xrotation Zrotation
  JOINT Chest2
  {
   OFFSET 0.000000 10.876940 -0.000436
   CHANNELS 3 Yrotation Xrotation Zrotation
   JOINT Chest3
   {
    OFFSET 0.000000 9.827798 0.000000
    CHANNELS 3 Yrotation Xrotation Zrotation
    JOINT Chest4
    {
     OFFSET 0.000000 9.827798 0.000000
     CHANNELS 3 Yrotation Xrotation Zrotation
     JOINT Neck
     {
      OFFSET 0.000000 13.831992 0.000000
      CHANNELS 3 Yrotation Xrotation Zrotation
      JOINT Head
      {
       OFFSET 0.000000 9.147643 -0.001036
       CHANNELS 3 Yrotation Xrotation Zrotation
       End Site
       {
        OFFSET 0.000000 17.515799 -0.000541
       }
      }
     }
     JOINT RightCollar
     {
      OFFSET -3.001579 7.717577 0.000000
      CHANNELS 3 Yrotation Xrotation Zrotation
      JOINT RightShoulder
      {
       OFFSET -14.002642 0.000000 0.000000
       CHANNELS 3 Yrotation Xrotation Zrotation
       JOINT RightElbow
       {
        OFFSET -30.053852 0.000000 0.000000
        CHANNELS 3 Yrotation Xrotation Zrotation
        JOINT RightWrist
        {
         OFFSET -24.564923 0.000000 -0.000000
         CHANNELS 3 Yrotation Xrotation Zrotation
         End Site
         {
          OFFSET -18.334355 0.000000 0.000000
         }
        }
       }
      }
     }
     JOINT LeftCollar
     {
      OFFSET 3.001579 7.717577 0.000000
      CHANNELS 3 Yrotation Xrotation Zrotation
      JOINT LeftShoulder
      {
       OFFSET 14.002642 0.000000 0.000000
       CHANNELS 3 Yrotation Xrotation Zrotation
       JOINT LeftElbow
       {
        OFFSET 30.053852 0.000000 0.000000
        CHANNELS 3 Yrotation Xrotation Zrotation
        JOINT LeftWrist
        {
         OFFSET 24.564923 0.000000 -0.000000
         CHANNELS 3 Yrotation Xrotation Zrotation
         End Site
         {
          OFFSET 18.334355 0.000000 0.000000
         }
        }
       }
      }
     }
    }
   }
  }
 }
 JOINT RightHip
 {
  OFFSET -8.003235 -0.001175 -0.000120
  CHANNELS 3 Yrotation Xrotation Zrotation
  JOINT RightKnee
  {
   OFFSET 0.000000 -41.759727 0.000113
   CHANNELS 3 Yrotation Xrotation Zrotation
   JOINT RightAnkle
   {
    OFFSET 0.000000 -40.728748 0.000159
    CHANNELS 3 Yrotation Xrotation Zrotation
    JOINT RightToe
    {
     OFFSET 0.000000 -6.515296 14.732841
     CHANNELS 3 Yrotation Xrotation Zrotation
     End Site
     {
      OFFSET 0.000000 -1.502839 6.412115
     }
    }
   }
  }
 }
 JOINT LeftHip
 {
  OFFSET 8.003235 -0.001175 -0.000120
  CHANNELS 3 Yrotation Xrotation Zrotation
  JOINT LeftKnee
  {
   OFFSET 0.000000 -41.759727 0.000113
   CHANNELS 3 Yrotation Xrotation Zrotation
   JOINT LeftAnkle
   {
    OFFSET 0.000000 -40.728748 0.000159
    CHANNELS 3 Yrotation Xrotation Zrotation
    JOINT LeftToe
    {
     OFFSET 0.000000 -6.515296 14.732841
     CHANNELS 3 Yrotation Xrotation Zrotation
     End Site
     {
      OFFSET 0.000000 -1.502839 6.412115
     }
    }
   }
  }
 }
}
MOTION
Frames: 15
Frame Time: 0.016667
-4.651230 92.367419 -19.145436 -34.917368 2.751131 -0.097591 3.779693 -4.405704 -1.031032 1.801987 -1.678300 -0.249047 1.801987 -1.678300 -0.249047 1.350709 -1.259473 -0.181824 2.368117 21.799564 -0.275356 4.362943 4.339970 -1.166434 6.538111 28.254546 14.750043 42.597506 -10.585876 78.832866 13.863786 7.592023 -11.096886 3.509733 -4.452413 -20.051090 -24.878869 32.931886 -22.764512 -35.894906 11.452105 -72.517354 -49.498993 -9.957311 19.687580 7.671264 3.524117 14.413817 2.001451 -6.027400 2.974489 7.849832 15.603230 -7.292186 -3.361921 0.130511 -1.333265 0.222884 -0.601509 1.617703 -28.611426 7.331751 2.954731 32.034867 7.933239 -11.148940 11.818713 -7.760883 -12.078771 -0.530588 1.333998 -1.013309
-4.745980 90.868677 -19.361662 -35.261175 2.281969 -1.010420 4.250028 -4.093050 -0.178733 1.858043 -1.646585 -0.198650 1.858043 -1.646585 -0.198650 1.392901 -1.235557 -0.143971 2.236918 21.869285 -0.272721 4.123457 4.465449 -1.122555 6.383767 29.195981 14.688030 44.771149 -10.559510 77.842008 13.825229 3.968748 -11.089516 4.289553 -4.368656 -19.784586 -25.420313 33.179892 -23.080965 -35.953360 11.535578 -71.904568 -47.801756 -9.408344 17.352625 7.307330 3.146312 13.997770 2.472473 -5.538357 3.963507 6.237998 15.874408 -7.323405 -2.439105 -0.379033 -1.489273 -0.065867 -2.847480 2.452581 -26.499025 8.336799 3.639143 31.120942 8.059291 -11.301487 10.068427 -8.222149 -10.721515 0.490187 0.934494 0.841867
-4.981837 89.109031 -19.430871 -35.844431 1.310079 -1.743005 5.065780 -3.191271 0.527344 1.925732 -1.652763 -0.170611 1.925732 -1.652763 -0.170611 1.443738 -1.240125 -0.122742 2.095306 22.023256 -0.249010 3.857865 4.746550 -1.035419 6.228491 30.912638 14.764764 47.665784 -10.586549 76.360960 14.698552 1.051782 -12.424454 5.186982 -3.586764 -19.284406 -25.417631 32.605401 -22.833845 -36.726264 12.710872 -72.192130 -47.268606 -8.915226 15.032931 7.168493 2.649628 13.824405 2.296910 -4.461362 5.258633 4.141243 16.427050 -8.250843 -0.814664 -2.825971 -1.289730 0.035115 -3.113026 2.900142 -22.806877 9.642216 4.625351 29.288018 10.333646 -12.025935 8.471092 -11.350852 -8.173979 0.801709 0.009438 0.740652
-5.216881 87.850369 -19.576611 -35.798766 1.318468 -1.983174 5.434317 -2.587848 0.686560 1.932948 -1.610781 -0.179546 1.932948 -1.610781 -0.179546 1.449143 -1.208668 -0.129557 1.955680 21.958473 -0.244570 3.605284 4.622520 -0.990251 7.041912 27.849793 15.994938 49.360946 -7.220407 77.549093 16.155014 -1.501458 -13.896228 5.802200 -2.678548 -19.679475 -24.803745 29.432966 -21.818879 -39.353739 16.094330 -75.061302 -48.482785 -9.729382 14.152038 7.681590 2.419402 14.575634 2.971795 -4.903501 6.735404 0.758333 18.483417 -10.302731 0.340433 -8.201986 -0.990753 0.524302 -1.135537 3.415892 -20.870209 9.577113 5.065130 26.282312 12.461505 -14.301926 10.018714 -15.561551 -3.507842 -0.664825 1.462175 -1.999679
-6.484368 87.010330 -20.697169 -34.961849 3.061741 -3.023465 4.622527 -4.135132 1.615174 1.952108 -1.397419 -0.213966 1.952108 -1.397419 -0.213966 1.463519 -1.048760 -0.156004 1.887308 21.755266 -0.217890 3.477446 4.242731 -0.928262 7.039537 24.576887 16.908167 53.533350 -3.431924 79.438360 17.413234 -2.917885 -16.335165 5.837568 -3.756799 -20.651232 -25.392020 26.267863 -21.955470 -43.448868 20.173949 -80.719473 -50.547767 -11.172201 17.395424 7.717712 2.452511 15.500355 4.936890 -7.415665 10.129432 -3.403916 19.207730 -13.677323 -1.334559 -12.035363 -0.634999 2.244544 1.004807 4.365200 -23.741944 7.396892 5.549430 32.274731 14.678160 -11.616034 6.434743 -18.808849 -1.830302 -0.669839 3.560990 -3.479824
-6.021968 87.387707 -20.357857 -37.760035 -5.961512 -0.397046 7.183450 0.178748 0.154108 2.147306 0.600722 -0.140795 2.147306 0.600722 -0.140795 1.610604 0.450053 -0.107707 1.875871 21.544323 -0.177154 3.448553 3.849578 -0.856830 7.104967 23.907574 17.418476 57.017182 1.023209 75.377548 21.567392 -4.591962 -15.780733 5.471442 -5.699322 -21.054081 -25.609211 25.417291 -22.389925 -43.730798 24.415092 -78.527182 -53.383536 -13.895911 16.828844 7.153226 2.299227 15.200837 5.546871 0.452919 7.144211 3.228547 22.885285 -10.322508 -3.721569 -13.884186 -0.604920 1.196153 1.732846 2.979119 -28.090123 12.378613 -5.626788 33.535916 13.744261 -9.141662 15.692920 -18.981153 0.963265 -4.472776 2.525041 -6.020200
-6.209113 88.000360 -19.558654 -39.280413 -5.979846 0.200643 8.987589 2.282185 -0.256259 2.091453 -0.003773 -0.192624 2.091453 -0.003773 -0.192624 1.568588 -0.003489 -0.144457 1.847953 21.389576 -0.078012 3.371902 3.558730 -0.673210 6.906496 23.630806 17.561146 49.736809 -1.460596 74.418613 23.338526 2.320885 -14.688779 5.264610 -5.028744 -20.412943 -25.451961 25.484060 -22.305576 -42.513882 23.803445 -77.846333 -53.243506 -13.519324 16.228858 7.366991 2.316301 15.548887 6.011280 0.514919 7.369338 5.049605 23.844133 -10.724701 -5.961529 -12.723806 -0.834724 2.438605 -0.128867 3.053104 -27.956944 10.577129 -10.016583 34.535714 13.282061 -5.535519 19.159590 -17.468634 2.204576 -6.624983 -0.186345 -6.796265
-5.860886 88.323310 -19.872176 -37.065111 -3.025623 -0.431097 7.223370 1.057623 -0.305643 1.993004 -0.758753 -0.197017 1.993004 -0.758753 -0.197017 1.494486 -0.569715 -0.145288 1.816603 21.449612 0.090912 3.265732 3.664944 -0.356684 6.962916 24.329606 17.702250 41.992788 -4.149596 73.693355 25.914705 9.682601 -11.537249 5.255683 -4.901027 -20.436717 -25.399674 26.164875 -22.488575 -39.278829 19.748125 -79.360628 -50.340317 -9.332200 15.812071 7.902309 1.801813 16.684438 2.937619 -2.554200 7.406597 5.228626 23.675161 -10.820840 -4.317826 -12.416525 -0.751278 1.509365 -0.268036 2.351832 -22.497267 8.442649 -5.817362 29.573357 15.680327 -6.401416 13.799225 -18.277613 2.264534 -3.873672 -0.453212 -4.754798
-5.973249 89.122222 -19.835563 -36.212968 -5.340805 -0.837422 6.228316 2.099793 0.141542 2.107798 -0.405956 -0.093013 2.107798 -0.405956 -0.093013 1.580780 -0.304792 -0.068361 1.777178 21.574640 0.231279 3.152762 3.892883 -0.088339 6.949373 24.189039 17.450364 35.897760 -5.416729 73.565337 28.725518 15.307909 -7.696175 5.681277 -4.732793 -20.515730 -25.238266 25.901767 -22.203552 -39.146241 21.162641 -79.268228 -52.239184 -11.843903 18.742885 7.699138 2.290326 15.880647 2.533656 -0.450014 8.030518 4.523319 23.724618 -11.006945 -3.933171 -10.035432 -1.046198 1.129091 -2.463141 2.081215 -20.864080 10.928118 -5.305350 27.839888 16.441671 -7.101776 11.822150 -16.331427 1.433153 -2.794340 -2.725129 -2.768561
-5.804225 90.239642 -19.587941 -34.781003 -6.054688 -0.597659 4.626900 1.906420 -0.249830 2.172501 -0.166899 -0.046273 2.172501 -0.166899 -0.046273 1.629362 -0.125340 -0.034112 1.764972 21.817129 0.348256 3.095316 4.340234 0.132024 6.743868 24.102860 17.055721 33.290863 -6.198358 74.539239 29.957641 18.402136 -5.551311 6.301823 -4.329935 -20.694812 -25.051377 25.856107 -21.898221 -39.573426 21.160513 -80.483187 -53.743919 -14.083567 22.675352 7.078528 3.139469 14.404677 0.571333 0.537596 7.063104 4.355418 22.830797 -10.837899 -1.789138 -6.518178 -0.849826 -0.273608 -6.380392 2.598779 -26.482259 10.889508 -5.768605 32.967771 16.994417 -7.899379 9.981393 -12.774499 -0.166037 -2.345371 -5.898634 -0.555032
-5.345406 91.271382 -19.917320 -32.480561 -4.181959 -0.667624 2.105421 0.465594 -0.603810 2.194550 -0.507226 -0.068844 2.194550 -0.507226 -0.068844 1.645845 -0.380673 -0.049812 1.783170 22.185432 0.474742 3.090272 5.021583 0.363152 6.474948 24.116063 16.716070 37.043433 -3.972363 74.887154 30.707360 15.233707 -6.807541 6.718737 -4.016312 -20.578001 -24.952404 26.478949 -21.730790 -37.921085 20.005540 -80.904181 -54.932102 -14.306018 22.908231 6.597082 3.466386 13.749151 -3.202869 -0.862197 5.899723 4.260065 20.864280 -10.492235 2.026524 -2.711549 -0.161563 -2.334762 -9.670140 2.594438 -30.260116 8.965755 -3.071125 35.389704 18.105244 -9.203965 5.902547 -9.355566 -3.428897 -0.092950 -8.625178 2.589243
-4.989808 92.204911 -20.238977 -32.622904 -3.576759 -0.742732 2.035309 0.180429 -0.690752 2.185804 -0.902269 -0.121211 2.185804 -0.902269 -0.121211 1.639140 -0.677146 -0.087680 1.818306 22.630919 0.610947 3.114101 5.846348 0.608255 6.054466 24.222685 16.329707 40.809457 -3.955719 76.913490 28.364415 13.079666 -8.455848 7.039180 -3.535175 -20.365671 -24.896346 27.205385 -21.509838 -37.535890 19.587618 -81.213131 -56.509373 -14.610373 22.421706 6.233533 2.885285 13.501255 -4.669694 -1.006761 4.993237 3.772636 18.272014 -10.371642 6.308338 1.490727 0.895210 -4.350970 -12.738033 2.575670 -28.602810 8.786571 -1.779281 33.707679 17.440224 -9.313975 4.059833 -6.476784 -7.307666 1.002536 -10.339231 5.042609
-4.379725 93.099161 -20.142119 -33.177695 -4.430626 -0.409821 2.296099 0.534763 -1.136968 2.190699 -1.060759 -0.168189 2.190699 -1.060759 -0.168189 1.642685 -0.796184 -0.122337 1.872143 23.082136 0.709508 3.183188 6.682740 0.780341 5.429408 24.483940 15.806058 45.333450 -4.533835 80.018086 24.914357 11.802206 -10.632647 7.243431 -3.724002 -20.075048 -24.807118 28.103864 -21.276472 -37.090679 19.161086 -80.992912 -57.173961 -14.607437 21.734234 5.909286 2.557750 13.100682 -5.561314 0.265682 3.665760 4.941816 16.121576 -9.778837 7.495787 5.785785 1.406489 -5.087380 -15.906717 3.260424 -25.293650 10.151244 -2.632246 30.121662 14.863769 -8.810442 4.517943 -3.482198 -10.385348 0.546045 -11.131412 6.306551
-3.954183 94.076914 -20.345521 -33.451870 -4.234443 -0.694081 2.121106 -0.515097 -0.982374 2.190396 -1.254128 -0.193009 2.190396 -1.254128 -0.193009 1.642336 -0.941302 -0.140258 1.971578 23.601874 0.728971 3.355747 7.648373 0.799916 4.900989 25.257600 15.258693 48.396183 -4.627513 81.634789 22.800385 11.473705 -11.569728 7.284592 -4.300720 -19.075785 -24.794727 29.655092 -21.549973 -35.110125 18.118884 -80.148624 -56.181359 -12.989064 20.212844 5.540663 1.959915 12.967975 -6.727494 0.569403 3.005542 6.347430 14.072632 -8.787013 7.332624 9.877521 0.700561 -4.790427 -18.774165 4.612033 -22.463553 11.103616 -0.916922 27.286966 12.663642 -9.530806 2.607280 -0.936043 -13.182133 1.471299 -11.373856 7.184016
-3.873374 94.869119 -20.673411 -34.114760 -3.915993 -1.428164 2.430727 -1.437315 -0.226596 2.101660 -1.670991 -0.197673 2.101660 -1.670991 -0.197673 1.575593 -1.253941 -0.142498 2.106712 24.185752 0.668679 3.612267 8.735368 0.670127 4.762553 27.150277 14.760650 47.066852 -5.814955 81.310300 21.814576 14.363808 -9.663390 7.219078 -4.913380 -18.087570 -24.988677 32.177765 -22.514115 -32.338282 16.492556 -78.486882 -55.066658 -11.269450 19.062735 5.215238 1.751382 12.662752 -6.654545 0.432552 3.122499 8.260424 13.897897 -7.831830 3.993238 11.254429 -0.634570 -3.750672 -20.011105 6.270224 -20.731617 11.916264 3.284087 26.211223 12.206894 -11.575341 0.358807 -0.709876 -15.783133 2.850011 -10.032166 7.238284
